<ttFont>
    <TTGlyph name=".notdef" xMin="102" yMin="0" xMax="922" yMax="1462">
      <contour>
        <pt x="102" y="0" on="1"/>
        <pt x="102" y="1462" on="1"/>
        <pt x="922" y="1462" on="1"/>
        <pt x="922" y="0" on="1"/>
      </contour>
      <contour>
        <pt x="201" y="98" on="1"/>
        <pt x="823" y="98" on="1"/>
        <pt x="823" y="1364" on="1"/>
        <pt x="201" y="1364" on="1"/>
      </contour>
    </TTGlyph>
    <TTGlyph name="glyph00004" xMin="0" yMin="0" xMax="1307" yMax="1468">
      <contour>
        <pt x="1116" y="0" on="1"/>
        <pt x="940" y="457" on="1"/>
        <pt x="360" y="457" on="1"/>
        <pt x="186" y="0" on="1"/>
        <pt x="0" y="0" on="1"/>
        <pt x="571" y="1468" on="1"/>
        <pt x="737" y="1468" on="1"/>
        <pt x="1307" y="0" on="1"/>
      </contour>
      <contour>
        <pt x="885" y="616" on="1"/>
        <pt x="721" y="1059" on="1"/>
        <pt x="651" y="1278" on="1"/>
        <pt x="616" y="1139" on="0"/>
        <pt x="588" y="1059" on="1"/>
        <pt x="422" y="616" on="1"/>
      </contour>
    </TTGlyph>
    <TTGlyph name="glyph00005" xMin="200" yMin="0" xMax="1222" yMax="1462">
      <contour>
        <pt x="200" y="1462" on="1"/>
        <pt x="617" y="1462" on="1"/>
        <pt x="911" y="1462" on="0"/>
        <pt x="1172" y="1287" on="0"/>
        <pt x="1172" y="1100" on="1"/>
        <pt x="1172" y="970" on="0"/>
        <pt x="1030" y="801" on="0"/>
        <pt x="894" y="776" on="1"/>
        <pt x="894" y="766" on="1"/>
        <pt x="1063" y="737" on="0"/>
        <pt x="1222" y="561" on="0"/>
        <pt x="1222" y="416" on="1"/>
        <pt x="1222" y="220" on="0"/>
        <pt x="954" y="0" on="0"/>
        <pt x="714" y="0" on="1"/>
        <pt x="200" y="0" on="1"/>
      </contour>
      <contour>
        <pt x="384" y="841" on="1"/>
        <pt x="654" y="841" on="1"/>
        <pt x="828" y="841" on="0"/>
        <pt x="982" y="951" on="0"/>
        <pt x="982" y="1079" on="1"/>
        <pt x="982" y="1199" on="0"/>
        <pt x="811" y="1304" on="0"/>
        <pt x="626" y="1304" on="1"/>
        <pt x="384" y="1304" on="1"/>
      </contour>
      <contour>
        <pt x="384" y="158" on="1"/>
        <pt x="679" y="158" on="1"/>
        <pt x="853" y="158" on="0"/>
        <pt x="1025" y="292" on="0"/>
        <pt x="1025" y="430" on="1"/>
        <pt x="1025" y="559" on="0"/>
        <pt x="849" y="685" on="0"/>
        <pt x="665" y="685" on="1"/>
        <pt x="384" y="685" on="1"/>
      </contour>
    </TTGlyph>
    <TTGlyph name="glyph00006" xMin="125" yMin="-20" xMax="1231" yMax="1483">
      <contour>
        <pt x="825" y="1321" on="1"/>
        <pt x="589" y="1321" on="0"/>
        <pt x="319" y="1005" on="0"/>
        <pt x="319" y="731" on="1"/>
        <pt x="319" y="448" on="0"/>
        <pt x="581" y="141" on="0"/>
        <pt x="823" y="141" on="1"/>
        <pt x="979" y="141" on="0"/>
        <pt x="1174" y="199" on="1"/>
        <pt x="1174" y="39" on="1"/>
        <pt x="1081" y="5" on="0"/>
        <pt x="909" y="-20" on="0"/>
        <pt x="797" y="-20" on="1"/>
        <pt x="474" y="-20" on="0"/>
        <pt x="125" y="373" on="0"/>
        <pt x="125" y="733" on="1"/>
        <pt x="125" y="959" on="0"/>
        <pt x="292" y="1299" on="0"/>
        <pt x="611" y="1483" on="0"/>
        <pt x="827" y="1483" on="1"/>
        <pt x="1059" y="1483" on="0"/>
        <pt x="1231" y="1397" on="1"/>
        <pt x="1157" y="1241" on="1"/>
        <pt x="982" y="1321" on="0"/>
      </contour>
    </TTGlyph>
    <TTGlyph name="glyph00007" xMin="60" yMin="0" xMax="1168" yMax="1462">
      <contour>
        <pt x="60" y="113" on="1"/>
        <pt x="521" y="1462" on="1"/>
        <pt x="705" y="1462" on="1"/>
        <pt x="1168" y="111" on="1"/>
        <pt x="1168" y="0" on="1"/>
        <pt x="60" y="0" on="1"/>
      </contour>
      <contour>
        <pt x="611" y="1262" on="1"/>
        <pt x="560" y="1062" on="0"/>
        <pt x="517" y="932" on="1"/>
        <pt x="255" y="158" on="1"/>
        <pt x="967" y="158" on="1"/>
        <pt x="709" y="924" on="1"/>
        <pt x="642" y="1124" on="0"/>
      </contour>
    </TTGlyph>
    <TTGlyph name="glyph00008" xMin="200" yMin="-20" xMax="1077" yMax="1462">
      <contour>
        <pt x="384" y="1462" on="1"/>
        <pt x="1077" y="1305" on="1"/>
        <pt x="1042" y="1147" on="1"/>
        <pt x="384" y="1296" on="1"/>
        <pt x="384" y="885" on="1"/>
        <pt x="912" y="767" on="1"/>
        <pt x="877" y="609" on="1"/>
        <pt x="384" y="719" on="1"/>
        <pt x="384" y="295" on="1"/>
        <pt x="1077" y="138" on="1"/>
        <pt x="1042" y="-20" on="1"/>
        <pt x="384" y="129" on="1"/>
        <pt x="384" y="0" on="1"/>
        <pt x="200" y="0" on="1"/>
        <pt x="200" y="1462" on="1"/>
      </contour>
    </TTGlyph>
    <TTGlyph name="glyph00009" xMin="200" yMin="0" xMax="1077" yMax="1462">
      <contour>
        <pt x="384" y="1462" on="1"/>
        <pt x="1077" y="1305" on="1"/>
        <pt x="1042" y="1147" on="1"/>
        <pt x="384" y="1296" on="1"/>
        <pt x="384" y="885" on="1"/>
        <pt x="912" y="767" on="1"/>
        <pt x="877" y="609" on="1"/>
        <pt x="384" y="719" on="1"/>
        <pt x="384" y="0" on="1"/>
        <pt x="200" y="0" on="1"/>
        <pt x="200" y="1462" on="1"/>
      </contour>
    </TTGlyph>
    <TTGlyph name="glyph00010" xMin="100" yMin="0" xMax="925" yMax="1462">
      <contour>
        <pt x="604" y="158" on="1"/>
        <pt x="925" y="158" on="1"/>
        <pt x="925" y="0" on="1"/>
        <pt x="100" y="0" on="1"/>
        <pt x="100" y="158" on="1"/>
        <pt x="420" y="158" on="1"/>
        <pt x="420" y="1304" on="1"/>
        <pt x="100" y="1304" on="1"/>
        <pt x="100" y="1462" on="1"/>
        <pt x="925" y="1462" on="1"/>
        <pt x="925" y="1304" on="1"/>
        <pt x="604" y="1304" on="1"/>
      </contour>
    </TTGlyph>
    <TTGlyph name="glyph00011" xMin="200" yMin="0" xMax="1318" yMax="1462">
      <contour>
        <pt x="1318" y="0" on="1"/>
        <pt x="200" y="0" on="1"/>
        <pt x="200" y="1462" on="1"/>
        <pt x="1318" y="1462" on="1"/>
      </contour>
      <contour>
        <pt x="384" y="158" on="1"/>
        <pt x="1134" y="158" on="1"/>
        <pt x="1134" y="685" on="1"/>
        <pt x="384" y="685" on="1"/>
      </contour>
      <contour>
        <pt x="1134" y="841" on="1"/>
        <pt x="1134" y="1304" on="1"/>
        <pt x="384" y="1304" on="1"/>
        <pt x="384" y="841" on="1"/>
      </contour>
    </TTGlyph>
    <TTGlyph name="glyph00012" xMin="125" yMin="-20" xMax="1475" yMax="1485">
      <contour>
        <pt x="1475" y="733" on="1"/>
        <pt x="1475" y="382" on="0"/>
        <pt x="1120" y="-20" on="0"/>
        <pt x="801" y="-20" on="1"/>
        <pt x="478" y="-20" on="0"/>
        <pt x="125" y="375" on="0"/>
        <pt x="125" y="735" on="1"/>
        <pt x="125" y="1092" on="0"/>
        <pt x="476" y="1485" on="0"/>
        <pt x="803" y="1485" on="1"/>
        <pt x="1121" y="1485" on="0"/>
        <pt x="1475" y="1086" on="0"/>
      </contour>
      <contour>
        <pt x="892" y="139" on="1"/>
        <pt x="1073" y="165" on="0"/>
        <pt x="1275" y="441" on="0"/>
        <pt x="1285" y="685" on="1"/>
        <pt x="892" y="685" on="1"/>
      </contour>
      <contour>
        <pt x="314" y="685" on="1"/>
        <pt x="322" y="448" on="0"/>
        <pt x="524" y="167" on="0"/>
        <pt x="708" y="140" on="1"/>
        <pt x="708" y="685" on="1"/>
      </contour>
      <contour>
        <pt x="1281" y="841" on="1"/>
        <pt x="1262" y="1053" on="0"/>
        <pt x="1065" y="1298" on="0"/>
        <pt x="892" y="1323" on="1"/>
        <pt x="892" y="841" on="1"/>
      </contour>
      <contour>
        <pt x="708" y="1322" on="1"/>
        <pt x="536" y="1297" on="0"/>
        <pt x="336" y="1049" on="0"/>
        <pt x="318" y="841" on="1"/>
        <pt x="708" y="841" on="1"/>
      </contour>
    </TTGlyph>
    <TTGlyph name="glyph00013" xMin="200" yMin="0" xMax="1077" yMax="1462">
      <contour>
        <pt x="384" y="1462" on="1"/>
        <pt x="1077" y="1305" on="1"/>
        <pt x="1042" y="1147" on="1"/>
        <pt x="384" y="1296" on="1"/>
        <pt x="384" y="0" on="1"/>
        <pt x="200" y="0" on="1"/>
        <pt x="200" y="1462" on="1"/>
      </contour>
    </TTGlyph>
    <TTGlyph name="glyph00014" xMin="200" yMin="0" xMax="1375" yMax="1462">
      <contour>
        <pt x="1375" y="380" on="1"/>
        <pt x="1190" y="380" on="1"/>
        <pt x="375" y="1224" on="1"/>
        <pt x="367" y="1224" on="1"/>
        <pt x="384" y="1020" on="0"/>
        <pt x="384" y="807" on="1"/>
        <pt x="384" y="0" on="1"/>
        <pt x="200" y="0" on="1"/>
        <pt x="200" y="1462" on="1"/>
        <pt x="387" y="1462" on="1"/>
        <pt x="1197" y="612" on="1"/>
        <pt x="1205" y="612" on="1"/>
        <pt x="1203" y="636" on="0"/>
        <pt x="1189" y="967" on="0"/>
        <pt x="1191" y="1027" on="1"/>
        <pt x="1191" y="1462" on="1"/>
        <pt x="1375" y="1462" on="1"/>
      </contour>
    </TTGlyph>
    <TTGlyph name="glyph00015" xMin="125" yMin="-20" xMax="1475" yMax="1485">
      <contour>
        <pt x="1475" y="733" on="1"/>
        <pt x="1475" y="382" on="0"/>
        <pt x="1120" y="-20" on="0"/>
        <pt x="801" y="-20" on="1"/>
        <pt x="478" y="-20" on="0"/>
        <pt x="125" y="375" on="0"/>
        <pt x="125" y="735" on="1"/>
        <pt x="125" y="1092" on="0"/>
        <pt x="476" y="1485" on="0"/>
        <pt x="803" y="1485" on="1"/>
        <pt x="1121" y="1485" on="0"/>
        <pt x="1475" y="1086" on="0"/>
      </contour>
      <contour>
        <pt x="319" y="733" on="1"/>
        <pt x="319" y="443" on="0"/>
        <pt x="565" y="139" on="0"/>
        <pt x="801" y="139" on="1"/>
        <pt x="1036" y="139" on="0"/>
        <pt x="1280" y="439" on="0"/>
        <pt x="1280" y="733" on="1"/>
        <pt x="1280" y="1026" on="0"/>
        <pt x="1038" y="1323" on="0"/>
        <pt x="803" y="1323" on="1"/>
        <pt x="565" y="1323" on="0"/>
        <pt x="319" y="1022" on="0"/>
      </contour>
    </TTGlyph>
    <TTGlyph name="glyph00016" xMin="200" yMin="0" xMax="1356" yMax="1485">
      <contour>
        <pt x="1172" y="830" on="1"/>
        <pt x="1172" y="873" on="1"/>
        <pt x="1172" y="1096" on="0"/>
        <pt x="953" y="1323" on="0"/>
        <pt x="744" y="1323" on="1"/>
        <pt x="550" y="1323" on="0"/>
        <pt x="384" y="1144" on="0"/>
        <pt x="384" y="953" on="1"/>
        <pt x="384" y="0" on="1"/>
        <pt x="200" y="0" on="1"/>
        <pt x="200" y="1000" on="1"/>
        <pt x="200" y="1230" on="0"/>
        <pt x="484" y="1485" on="0"/>
        <pt x="744" y="1485" on="1"/>
        <pt x="1042" y="1485" on="0"/>
        <pt x="1356" y="1184" on="0"/>
        <pt x="1356" y="873" on="1"/>
        <pt x="1356" y="830" on="1"/>
      </contour>
    </TTGlyph>
    <TTGlyph name="glyph00017" xMin="125" yMin="0" xMax="1323" yMax="1485">
      <contour>
        <pt x="1323" y="930" on="1"/>
        <pt x="1323" y="694" on="0"/>
        <pt x="1051" y="402" on="0"/>
        <pt x="814" y="379" on="1"/>
        <pt x="814" y="0" on="1"/>
        <pt x="634" y="0" on="1"/>
        <pt x="634" y="379" on="1"/>
        <pt x="477" y="394" on="0"/>
        <pt x="245" y="540" on="0"/>
        <pt x="125" y="779" on="0"/>
        <pt x="125" y="931" on="1"/>
        <pt x="125" y="1096" on="0"/>
        <pt x="269" y="1349" on="0"/>
        <pt x="541" y="1485" on="0"/>
        <pt x="725" y="1485" on="1"/>
        <pt x="1004" y="1485" on="0"/>
        <pt x="1323" y="1188" on="0"/>
      </contour>
      <contour>
        <pt x="319" y="930" on="1"/>
        <pt x="319" y="737" on="0"/>
        <pt x="526" y="537" on="0"/>
        <pt x="722" y="537" on="1"/>
        <pt x="918" y="537" on="0"/>
        <pt x="1129" y="735" on="0"/>
        <pt x="1129" y="930" on="1"/>
        <pt x="1129" y="1120" on="0"/>
        <pt x="925" y="1323" on="0"/>
        <pt x="725" y="1323" on="1"/>
        <pt x="525" y="1323" on="0"/>
        <pt x="319" y="1121" on="0"/>
      </contour>
    </TTGlyph>
    <TTGlyph name="glyph00018" xMin="125" yMin="0" xMax="1064" yMax="1462">
      <contour>
        <pt x="1064" y="0" on="1"/>
        <pt x="880" y="0" on="1"/>
        <pt x="880" y="315" on="1"/>
        <pt x="714" y="315" on="1"/>
        <pt x="429" y="315" on="0"/>
        <pt x="125" y="547" on="0"/>
        <pt x="125" y="772" on="1"/>
        <pt x="125" y="1209" on="0"/>
        <pt x="683" y="1209" on="1"/>
        <pt x="880" y="1209" on="1"/>
        <pt x="880" y="1462" on="1"/>
        <pt x="1064" y="1462" on="1"/>
      </contour>
      <contour>
        <pt x="880" y="1051" on="1"/>
        <pt x="698" y="1051" on="1"/>
        <pt x="502" y="1051" on="0"/>
        <pt x="319" y="916" on="0"/>
        <pt x="319" y="772" on="1"/>
        <pt x="319" y="615" on="0"/>
        <pt x="511" y="473" on="0"/>
        <pt x="733" y="473" on="1"/>
        <pt x="880" y="473" on="1"/>
      </contour>
    </TTGlyph>
    <TTGlyph name="glyph00019" xMin="200" yMin="0" xMax="1139" yMax="1462">
      <contour>
        <pt x="587" y="1462" on="1"/>
        <pt x="1139" y="1462" on="0"/>
        <pt x="1139" y="1032" on="1"/>
        <pt x="1139" y="887" on="0"/>
        <pt x="1006" y="680" on="0"/>
        <pt x="744" y="568" on="0"/>
        <pt x="552" y="568" on="1"/>
        <pt x="416" y="568" on="1"/>
        <pt x="830" y="265" on="1"/>
        <pt x="735" y="135" on="1"/>
        <pt x="384" y="392" on="1"/>
        <pt x="384" y="0" on="1"/>
        <pt x="200" y="0" on="1"/>
        <pt x="200" y="1462" on="1"/>
      </contour>
      <contour>
        <pt x="384" y="726" on="1"/>
        <pt x="531" y="726" on="1"/>
        <pt x="749" y="726" on="0"/>
        <pt x="945" y="867" on="0"/>
        <pt x="945" y="1023" on="1"/>
        <pt x="945" y="1164" on="0"/>
        <pt x="763" y="1304" on="0"/>
        <pt x="570" y="1304" on="1"/>
        <pt x="384" y="1304" on="1"/>
      </contour>
    </TTGlyph>
    <TTGlyph name="glyph00020" xMin="30" yMin="0" xMax="1883" yMax="1462">
      <contour>
        <pt x="1883" y="0" on="1"/>
        <pt x="1688" y="0" on="1"/>
        <pt x="1465" y="886" on="1"/>
        <pt x="1410" y="1098" on="0"/>
        <pt x="1394" y="1236" on="1"/>
        <pt x="1366" y="1057" on="0"/>
        <pt x="1314" y="884" on="1"/>
        <pt x="1049" y="0" on="1"/>
        <pt x="851" y="0" on="1"/>
        <pt x="597" y="877" on="1"/>
        <pt x="541" y="1072" on="0"/>
        <pt x="519" y="1236" on="1"/>
        <pt x="497" y="1080" on="0"/>
        <pt x="449" y="888" on="1"/>
        <pt x="225" y="0" on="1"/>
        <pt x="30" y="0" on="1"/>
        <pt x="417" y="1462" on="1"/>
        <pt x="608" y="1462" on="1"/>
        <pt x="879" y="516" on="1"/>
        <pt x="937" y="308" on="0"/>
        <pt x="949" y="221" on="1"/>
        <pt x="960" y="296" on="0"/>
        <pt x="1023" y="510" on="1"/>
        <pt x="1303" y="1462" on="1"/>
        <pt x="1494" y="1462" on="1"/>
      </contour>
    </TTGlyph>
    <TTGlyph name="glyph00021" xMin="30" yMin="0" xMax="1126" yMax="1462">
      <contour>
        <pt x="671" y="0" on="1"/>
        <pt x="487" y="0" on="1"/>
        <pt x="487" y="1304" on="1"/>
        <pt x="30" y="1304" on="1"/>
        <pt x="30" y="1462" on="1"/>
        <pt x="1126" y="1462" on="1"/>
        <pt x="1126" y="1304" on="1"/>
        <pt x="671" y="1304" on="1"/>
      </contour>
    </TTGlyph>
    <TTGlyph name="glyph00022" xMin="40" yMin="0" xMax="1199" yMax="1462">
      <contour>
        <pt x="620" y="743" on="1"/>
        <pt x="1001" y="1462" on="1"/>
        <pt x="1199" y="1462" on="1"/>
        <pt x="711" y="567" on="1"/>
        <pt x="711" y="0" on="1"/>
        <pt x="527" y="0" on="1"/>
        <pt x="527" y="559" on="1"/>
        <pt x="40" y="1462" on="1"/>
        <pt x="241" y="1462" on="1"/>
      </contour>
    </TTGlyph>
    <TTGlyph name="glyph00023" xMin="125" yMin="0" xMax="1327" yMax="1462">
      <contour>
        <pt x="1327" y="750" on="1"/>
        <pt x="1327" y="519" on="0"/>
        <pt x="1058" y="226" on="0"/>
        <pt x="818" y="200" on="1"/>
        <pt x="818" y="0" on="1"/>
        <pt x="634" y="0" on="1"/>
        <pt x="634" y="199" on="1"/>
        <pt x="477" y="214" on="0"/>
        <pt x="245" y="360" on="0"/>
        <pt x="125" y="599" on="0"/>
        <pt x="125" y="751" on="1"/>
        <pt x="125" y="982" on="0"/>
        <pt x="395" y="1275" on="0"/>
        <pt x="634" y="1300" on="1"/>
        <pt x="634" y="1462" on="1"/>
        <pt x="818" y="1462" on="1"/>
        <pt x="818" y="1300" on="1"/>
        <pt x="1055" y="1277" on="0"/>
        <pt x="1327" y="984" on="0"/>
      </contour>
      <contour>
        <pt x="315" y="750" on="1"/>
        <pt x="315" y="584" on="0"/>
        <pt x="476" y="379" on="0"/>
        <pt x="634" y="356" on="1"/>
        <pt x="634" y="1143" on="1"/>
        <pt x="481" y="1121" on="0"/>
        <pt x="315" y="921" on="0"/>
      </contour>
      <contour>
        <pt x="1137" y="750" on="1"/>
        <pt x="1137" y="917" on="0"/>
        <pt x="972" y="1121" on="0"/>
        <pt x="818" y="1143" on="1"/>
        <pt x="818" y="357" on="1"/>
        <pt x="975" y="382" on="0"/>
        <pt x="1137" y="587" on="0"/>
      </contour>
    </TTGlyph>
    <TTGlyph name="glyph00024" xMin="10" yMin="0" xMax="1194" yMax="1462">
      <contour>
        <pt x="1194" y="0" on="1"/>
        <pt x="985" y="0" on="1"/>
        <pt x="598" y="635" on="1"/>
        <pt x="205" y="0" on="1"/>
        <pt x="10" y="0" on="1"/>
        <pt x="496" y="762" on="1"/>
        <pt x="41" y="1462" on="1"/>
        <pt x="246" y="1462" on="1"/>
        <pt x="604" y="889" on="1"/>
        <pt x="965" y="1462" on="1"/>
        <pt x="1159" y="1462" on="1"/>
        <pt x="707" y="766" on="1"/>
      </contour>
    </TTGlyph>
    <TTGlyph name="glyph00025" xMin="40" yMin="0" xMax="1339" yMax="1462">
      <contour>
        <pt x="781" y="1462" on="1"/>
        <pt x="781" y="832" on="1"/>
        <pt x="847" y="955" on="0"/>
        <pt x="919" y="1075" on="1"/>
        <pt x="1151" y="1462" on="1"/>
        <pt x="1339" y="1462" on="1"/>
        <pt x="781" y="557" on="1"/>
        <pt x="781" y="0" on="1"/>
        <pt x="597" y="0" on="1"/>
        <pt x="597" y="557" on="1"/>
        <pt x="40" y="1462" on="1"/>
        <pt x="228" y="1462" on="1"/>
        <pt x="474" y="1053" on="1"/>
        <pt x="597" y="836" on="1"/>
        <pt x="597" y="1462" on="1"/>
      </contour>
    </TTGlyph>
    <TTGlyph name="glyph00026" xMin="70" yMin="0" xMax="1518" yMax="1485">
      <contour>
        <pt x="1518" y="0" on="1"/>
        <pt x="928" y="0" on="1"/>
        <pt x="928" y="147" on="1"/>
        <pt x="1105" y="274" on="0"/>
        <pt x="1272" y="601" on="0"/>
        <pt x="1272" y="821" on="1"/>
        <pt x="1272" y="1067" on="0"/>
        <pt x="1029" y="1323" on="0"/>
        <pt x="793" y="1323" on="1"/>
        <pt x="559" y="1323" on="0"/>
        <pt x="318" y="1068" on="0"/>
        <pt x="318" y="821" on="1"/>
        <pt x="318" y="597" on="0"/>
        <pt x="483" y="275" on="0"/>
        <pt x="660" y="147" on="1"/>
        <pt x="660" y="0" on="1"/>
        <pt x="70" y="0" on="1"/>
        <pt x="70" y="158" on="1"/>
        <pt x="434" y="158" on="1"/>
        <pt x="286" y="272" on="0"/>
        <pt x="123" y="619" on="0"/>
        <pt x="123" y="827" on="1"/>
        <pt x="123" y="1135" on="0"/>
        <pt x="479" y="1485" on="0"/>
        <pt x="793" y="1485" on="1"/>
        <pt x="1111" y="1485" on="0"/>
        <pt x="1465" y="1137" on="0"/>
        <pt x="1465" y="829" on="1"/>
        <pt x="1465" y="621" on="0"/>
        <pt x="1302" y="271" on="0"/>
        <pt x="1155" y="158" on="1"/>
        <pt x="1518" y="158" on="1"/>
      </contour>
    </TTGlyph>
    <TTGlyph name="glyph00027" xMin="30" yMin="0" xMax="1883" yMax="1462">
      <contour>
        <pt x="1883" y="0" on="1"/>
        <pt x="30" y="0" on="1"/>
        <pt x="417" y="1462" on="1"/>
        <pt x="608" y="1462" on="1"/>
        <pt x="879" y="516" on="1"/>
        <pt x="937" y="308" on="0"/>
        <pt x="949" y="221" on="1"/>
        <pt x="960" y="296" on="0"/>
        <pt x="1023" y="510" on="1"/>
        <pt x="1303" y="1462" on="1"/>
        <pt x="1494" y="1462" on="1"/>
      </contour>
      <contour>
        <pt x="1394" y="1236" on="1"/>
        <pt x="1366" y="1057" on="0"/>
        <pt x="1314" y="884" on="1"/>
        <pt x="1096" y="158" on="1"/>
        <pt x="1648" y="158" on="1"/>
        <pt x="1465" y="886" on="1"/>
        <pt x="1410" y="1098" on="0"/>
      </contour>
      <contour>
        <pt x="519" y="1236" on="1"/>
        <pt x="497" y="1080" on="0"/>
        <pt x="449" y="888" on="1"/>
        <pt x="265" y="158" on="1"/>
        <pt x="805" y="158" on="1"/>
        <pt x="597" y="877" on="1"/>
        <pt x="541" y="1072" on="0"/>
      </contour>
    </TTGlyph>
    <TTGlyph name="glyph00028" xMin="125" yMin="-20" xMax="1475" yMax="1485">
      <contour>
        <pt x="1475" y="733" on="1"/>
        <pt x="1475" y="382" on="0"/>
        <pt x="1120" y="-20" on="0"/>
        <pt x="801" y="-20" on="1"/>
        <pt x="478" y="-20" on="0"/>
        <pt x="125" y="375" on="0"/>
        <pt x="125" y="735" on="1"/>
        <pt x="125" y="1092" on="0"/>
        <pt x="476" y="1485" on="0"/>
        <pt x="803" y="1485" on="1"/>
        <pt x="1121" y="1485" on="0"/>
        <pt x="1475" y="1086" on="0"/>
      </contour>
      <contour>
        <pt x="891" y="131" on="1"/>
        <pt x="1082" y="159" on="0"/>
        <pt x="1289" y="468" on="0"/>
        <pt x="1289" y="733" on="1"/>
        <pt x="1289" y="995" on="0"/>
        <pt x="1086" y="1302" on="0"/>
        <pt x="891" y="1331" on="1"/>
      </contour>
      <contour>
        <pt x="707" y="1329" on="1"/>
        <pt x="514" y="1298" on="0"/>
        <pt x="311" y="991" on="0"/>
        <pt x="311" y="733" on="1"/>
        <pt x="311" y="476" on="0"/>
        <pt x="513" y="163" on="0"/>
        <pt x="707" y="132" on="1"/>
      </contour>
    </TTGlyph>
    <TTGlyph name="glyph00029" xMin="125" yMin="0" xMax="1026" yMax="1462">
      <contour>
        <pt x="1026" y="0" on="1"/>
        <pt x="889" y="0" on="1"/>
        <pt x="520" y="0" on="0"/>
        <pt x="125" y="382" on="0"/>
        <pt x="125" y="745" on="1"/>
        <pt x="125" y="1087" on="0"/>
        <pt x="504" y="1462" on="0"/>
        <pt x="846" y="1462" on="1"/>
        <pt x="1026" y="1462" on="1"/>
      </contour>
      <contour>
        <pt x="320" y="685" on="1"/>
        <pt x="346" y="193" on="0"/>
        <pt x="842" y="160" on="1"/>
        <pt x="842" y="685" on="1"/>
      </contour>
      <contour>
        <pt x="842" y="1304" on="1"/>
        <pt x="371" y="1292" on="0"/>
        <pt x="324" y="841" on="1"/>
        <pt x="842" y="841" on="1"/>
      </contour>
    </TTGlyph>
    <TTGlyph name="glyph00030" xMin="140" yMin="532" xMax="1072" yMax="1462">
      <contour>
        <pt x="1072" y="1462" on="1"/>
        <pt x="1072" y="532" on="1"/>
        <pt x="140" y="532" on="1"/>
        <pt x="140" y="1462" on="1"/>
      </contour>
      <contour>
        <pt x="324" y="690" on="1"/>
        <pt x="888" y="690" on="1"/>
        <pt x="888" y="1304" on="1"/>
        <pt x="324" y="1304" on="1"/>
      </contour>
    </TTGlyph>
    <TTGlyph name="glyph00031" xMin="140" yMin="0" xMax="1072" yMax="1462">
      <contour>
        <pt x="1072" y="1462" on="1"/>
        <pt x="1072" y="532" on="1"/>
        <pt x="698" y="532" on="1"/>
        <pt x="698" y="0" on="1"/>
        <pt x="514" y="0" on="1"/>
        <pt x="514" y="532" on="1"/>
        <pt x="140" y="532" on="1"/>
        <pt x="140" y="1462" on="1"/>
      </contour>
      <contour>
        <pt x="324" y="690" on="1"/>
        <pt x="888" y="690" on="1"/>
        <pt x="888" y="1304" on="1"/>
        <pt x="324" y="1304" on="1"/>
      </contour>
    </TTGlyph>
    <TTGlyph name="glyph00032" xMin="60" yMin="0" xMax="1168" yMax="1462">
      <contour>
        <pt x="705" y="0" on="1"/>
        <pt x="521" y="0" on="1"/>
        <pt x="60" y="1349" on="1"/>
        <pt x="60" y="1462" on="1"/>
        <pt x="1168" y="1462" on="1"/>
        <pt x="1168" y="1351" on="1"/>
      </contour>
      <contour>
        <pt x="257" y="1304" on="1"/>
        <pt x="517" y="530" on="1"/>
        <pt x="560" y="400" on="0"/>
        <pt x="611" y="200" on="1"/>
        <pt x="642" y="338" on="0"/>
        <pt x="709" y="538" on="1"/>
        <pt x="965" y="1304" on="1"/>
      </contour>
    </TTGlyph>
    <TTGlyph name="glyph00033" xMin="60" yMin="0" xMax="1146" yMax="1462">
      <contour>
        <pt x="1146" y="1351" on="1"/>
        <pt x="695" y="640" on="1"/>
        <pt x="695" y="0" on="1"/>
        <pt x="511" y="0" on="1"/>
        <pt x="511" y="640" on="1"/>
        <pt x="60" y="1349" on="1"/>
        <pt x="60" y="1462" on="1"/>
        <pt x="1146" y="1462" on="1"/>
      </contour>
      <contour>
        <pt x="288" y="1304" on="1"/>
        <pt x="603" y="800" on="1"/>
        <pt x="918" y="1304" on="1"/>
      </contour>
    </TTGlyph>
    <TTGlyph name="glyph00034" xMin="20" yMin="-20" xMax="1341" yMax="1462">
      <contour>
        <pt x="753" y="695" on="1"/>
        <pt x="1341" y="94" on="1"/>
        <pt x="1224" y="-20" on="1"/>
        <pt x="680" y="536" on="1"/>
        <pt x="137" y="-20" on="1"/>
        <pt x="20" y="94" on="1"/>
        <pt x="608" y="695" on="1"/>
      </contour>
      <contour>
        <pt x="753" y="1462" on="1"/>
        <pt x="1341" y="861" on="1"/>
        <pt x="1224" y="747" on="1"/>
        <pt x="680" y="1303" on="1"/>
        <pt x="137" y="747" on="1"/>
        <pt x="20" y="861" on="1"/>
        <pt x="608" y="1462" on="1"/>
      </contour>
    </TTGlyph>
    <TTGlyph name="glyph00035" xMin="200" yMin="0" xMax="1680" yMax="1462">
      <contour>
        <pt x="1680" y="0" on="1"/>
        <pt x="1496" y="0" on="1"/>
        <pt x="1496" y="1304" on="1"/>
        <pt x="1032" y="1304" on="1"/>
        <pt x="1032" y="0" on="1"/>
        <pt x="848" y="0" on="1"/>
        <pt x="848" y="1304" on="1"/>
        <pt x="384" y="1304" on="1"/>
        <pt x="384" y="0" on="1"/>
        <pt x="200" y="0" on="1"/>
        <pt x="200" y="1462" on="1"/>
        <pt x="1680" y="1462" on="1"/>
      </contour>
    </TTGlyph>
    <TTGlyph name="glyph00036" xMin="40" yMin="0" xMax="1224" yMax="1462">
      <contour>
        <pt x="1224" y="0" on="1"/>
        <pt x="40" y="0" on="1"/>
        <pt x="526" y="762" on="1"/>
        <pt x="71" y="1462" on="1"/>
        <pt x="1189" y="1462" on="1"/>
        <pt x="737" y="766" on="1"/>
      </contour>
      <contour>
        <pt x="336" y="158" on="1"/>
        <pt x="915" y="158" on="1"/>
        <pt x="628" y="635" on="1"/>
      </contour>
      <contour>
        <pt x="634" y="889" on="1"/>
        <pt x="891" y="1304" on="1"/>
        <pt x="378" y="1304" on="1"/>
      </contour>
    </TTGlyph>
    <TTGlyph name="glyph00037" xMin="40" yMin="0" xMax="1224" yMax="1462">
      <contour>
        <pt x="1224" y="0" on="1"/>
        <pt x="1015" y="0" on="1"/>
        <pt x="628" y="635" on="1"/>
        <pt x="235" y="0" on="1"/>
        <pt x="40" y="0" on="1"/>
        <pt x="526" y="762" on="1"/>
        <pt x="71" y="1462" on="1"/>
        <pt x="1189" y="1462" on="1"/>
        <pt x="737" y="766" on="1"/>
      </contour>
      <contour>
        <pt x="634" y="889" on="1"/>
        <pt x="891" y="1304" on="1"/>
        <pt x="378" y="1304" on="1"/>
      </contour>
    </TTGlyph>
    <TTGlyph name="glyph00038" xMin="80" yMin="-20" xMax="1464" yMax="1482">
      <contour>
        <pt x="113" y="1482" on="1"/>
        <pt x="398" y="1420" on="0"/>
        <pt x="694" y="1034" on="0"/>
        <pt x="694" y="728" on="1"/>
        <pt x="694" y="423" on="0"/>
        <pt x="391" y="40" on="0"/>
        <pt x="113" y="-20" on="1"/>
        <pt x="80" y="138" on="1"/>
        <pt x="298" y="202" on="0"/>
        <pt x="500" y="486" on="0"/>
        <pt x="500" y="728" on="1"/>
        <pt x="500" y="972" on="0"/>
        <pt x="291" y="1264" on="0"/>
        <pt x="80" y="1324" on="1"/>
      </contour>
      <contour>
        <pt x="1464" y="1324" on="1"/>
        <pt x="1252" y="1264" on="0"/>
        <pt x="1044" y="971" on="0"/>
        <pt x="1044" y="728" on="1"/>
        <pt x="1044" y="487" on="0"/>
        <pt x="1245" y="203" on="0"/>
        <pt x="1464" y="138" on="1"/>
        <pt x="1431" y="-20" on="1"/>
        <pt x="1153" y="40" on="0"/>
        <pt x="850" y="423" on="0"/>
        <pt x="850" y="728" on="1"/>
        <pt x="850" y="1034" on="0"/>
        <pt x="1146" y="1420" on="0"/>
        <pt x="1431" y="1482" on="1"/>
      </contour>
    </TTGlyph>
    <TTGlyph name="glyph00039" xMin="125" yMin="0" xMax="1199" yMax="1462">
      <contour>
        <pt x="676" y="1304" on="1"/>
        <pt x="636" y="1304" on="1"/>
        <pt x="537" y="1304" on="0"/>
        <pt x="395" y="1222" on="0"/>
        <pt x="319" y="1077" on="0"/>
        <pt x="319" y="984" on="1"/>
        <pt x="319" y="894" on="0"/>
        <pt x="395" y="749" on="0"/>
        <pt x="538" y="667" on="0"/>
        <pt x="636" y="667" on="1"/>
        <pt x="676" y="667" on="1"/>
        <pt x="676" y="509" on="1"/>
        <pt x="630" y="509" on="1"/>
        <pt x="480" y="509" on="0"/>
        <pt x="250" y="631" on="0"/>
        <pt x="125" y="851" on="0"/>
        <pt x="125" y="985" on="1"/>
        <pt x="125" y="1121" on="0"/>
        <pt x="250" y="1340" on="0"/>
        <pt x="479" y="1462" on="0"/>
        <pt x="630" y="1462" on="1"/>
        <pt x="676" y="1462" on="1"/>
      </contour>
      <contour>
        <pt x="648" y="158" on="1"/>
        <pt x="688" y="158" on="1"/>
        <pt x="787" y="158" on="0"/>
        <pt x="929" y="240" on="0"/>
        <pt x="1005" y="385" on="0"/>
        <pt x="1005" y="478" on="1"/>
        <pt x="1005" y="568" on="0"/>
        <pt x="929" y="713" on="0"/>
        <pt x="786" y="795" on="0"/>
        <pt x="688" y="795" on="1"/>
        <pt x="648" y="795" on="1"/>
        <pt x="648" y="953" on="1"/>
        <pt x="694" y="953" on="1"/>
        <pt x="844" y="953" on="0"/>
        <pt x="1074" y="831" on="0"/>
        <pt x="1199" y="611" on="0"/>
        <pt x="1199" y="477" on="1"/>
        <pt x="1199" y="341" on="0"/>
        <pt x="1074" y="122" on="0"/>
        <pt x="845" y="0" on="0"/>
        <pt x="694" y="0" on="1"/>
        <pt x="648" y="0" on="1"/>
      </contour>
    </TTGlyph>
    <TTGlyph name="glyph00040" xMin="20" yMin="0" xMax="1613" yMax="1462">
      <contour>
        <pt x="20" y="951" on="1"/>
        <pt x="345" y="1462" on="1"/>
        <pt x="459" y="1462" on="1"/>
        <pt x="817" y="889" on="1"/>
        <pt x="1178" y="1462" on="1"/>
        <pt x="1288" y="1462" on="1"/>
        <pt x="1613" y="951" on="1"/>
        <pt x="1471" y="871" on="1"/>
        <pt x="1236" y="1251" on="1"/>
        <pt x="920" y="766" on="1"/>
        <pt x="1407" y="0" on="1"/>
        <pt x="1198" y="0" on="1"/>
        <pt x="811" y="635" on="1"/>
        <pt x="418" y="0" on="1"/>
        <pt x="223" y="0" on="1"/>
        <pt x="709" y="762" on="1"/>
        <pt x="393" y="1246" on="1"/>
        <pt x="162" y="871" on="1"/>
      </contour>
    </TTGlyph>
    <TTGlyph name="glyph00041" xMin="200" yMin="0" xMax="1652" yMax="1462">
      <contour>
        <pt x="1652" y="0" on="1"/>
        <pt x="1468" y="0" on="1"/>
        <pt x="1468" y="685" on="1"/>
        <pt x="1018" y="685" on="1"/>
        <pt x="1018" y="0" on="1"/>
        <pt x="834" y="0" on="1"/>
        <pt x="834" y="685" on="1"/>
        <pt x="384" y="685" on="1"/>
        <pt x="384" y="0" on="1"/>
        <pt x="200" y="0" on="1"/>
        <pt x="200" y="1462" on="1"/>
        <pt x="384" y="1462" on="1"/>
        <pt x="384" y="841" on="1"/>
        <pt x="834" y="841" on="1"/>
        <pt x="834" y="1462" on="1"/>
        <pt x="1018" y="1462" on="1"/>
        <pt x="1018" y="841" on="1"/>
        <pt x="1468" y="841" on="1"/>
        <pt x="1468" y="1462" on="1"/>
        <pt x="1652" y="1462" on="1"/>
      </contour>
    </TTGlyph>
    <TTGlyph name="glyph00042" xMin="60" yMin="-20" xMax="1527" yMax="1482">
      <contour>
        <pt x="736" y="484" on="1"/>
        <pt x="736" y="322" on="0"/>
        <pt x="902" y="142" on="0"/>
        <pt x="1042" y="142" on="1"/>
        <pt x="1151" y="142" on="0"/>
        <pt x="1327" y="263" on="0"/>
        <pt x="1377" y="374" on="1"/>
        <pt x="1527" y="293" on="1"/>
        <pt x="1477" y="152" on="0"/>
        <pt x="1212" y="-20" on="0"/>
        <pt x="1043" y="-20" on="1"/>
        <pt x="896" y="-20" on="0"/>
        <pt x="666" y="96" on="0"/>
        <pt x="542" y="311" on="0"/>
        <pt x="542" y="453" on="1"/>
        <pt x="542" y="620" on="0"/>
        <pt x="644" y="765" on="1"/>
        <pt x="60" y="765" on="1"/>
        <pt x="60" y="921" on="1"/>
        <pt x="761" y="921" on="1"/>
        <pt x="390" y="1383" on="1"/>
        <pt x="520" y="1482" on="1"/>
        <pt x="966" y="924" on="1"/>
        <pt x="943" y="819" on="1"/>
        <pt x="850" y="782" on="0"/>
        <pt x="736" y="599" on="0"/>
      </contour>
    </TTGlyph>
    <TTGlyph name="glyph00043" xMin="40" yMin="0" xMax="1361" yMax="1463">
      <contour>
        <pt x="773" y="1463" on="1"/>
        <pt x="1361" y="862" on="1"/>
        <pt x="1244" y="748" on="1"/>
        <pt x="793" y="1215" on="1"/>
        <pt x="793" y="0" on="1"/>
        <pt x="609" y="0" on="1"/>
        <pt x="609" y="1217" on="1"/>
        <pt x="157" y="748" on="1"/>
        <pt x="40" y="862" on="1"/>
        <pt x="628" y="1463" on="1"/>
      </contour>
    </TTGlyph>
    <TTGlyph name="glyph00044" xMin="200" yMin="0" xMax="1312" yMax="1463">
      <contour>
        <pt x="848" y="822" on="1"/>
        <pt x="848" y="0" on="1"/>
        <pt x="664" y="0" on="1"/>
        <pt x="664" y="822" on="1"/>
      </contour>
      <contour>
        <pt x="384" y="1463" on="1"/>
        <pt x="384" y="641" on="1"/>
        <pt x="200" y="641" on="1"/>
        <pt x="200" y="1463" on="1"/>
      </contour>
      <contour>
        <pt x="1312" y="1463" on="1"/>
        <pt x="1312" y="641" on="1"/>
        <pt x="1128" y="641" on="1"/>
        <pt x="1128" y="1463" on="1"/>
      </contour>
    </TTGlyph>
    <TTGlyph name="glyph00045" xMin="125" yMin="-20" xMax="1190" yMax="1462">
      <contour>
        <pt x="483" y="890" on="1"/>
        <pt x="588" y="927" on="0"/>
        <pt x="698" y="927" on="1"/>
        <pt x="837" y="927" on="0"/>
        <pt x="1063" y="803" on="0"/>
        <pt x="1190" y="583" on="0"/>
        <pt x="1190" y="451" on="1"/>
        <pt x="1190" y="315" on="0"/>
        <pt x="1069" y="100" on="0"/>
        <pt x="843" y="-20" on="0"/>
        <pt x="689" y="-20" on="1"/>
        <pt x="410" y="-20" on="0"/>
        <pt x="125" y="328" on="0"/>
        <pt x="125" y="663" on="1"/>
        <pt x="125" y="896" on="0"/>
        <pt x="312" y="1261" on="0"/>
        <pt x="653" y="1462" on="0"/>
        <pt x="863" y="1462" on="1"/>
        <pt x="1018" y="1462" on="1"/>
        <pt x="1018" y="1304" on="1"/>
        <pt x="883" y="1304" on="1"/>
        <pt x="616" y="1304" on="0"/>
        <pt x="319" y="966" on="0"/>
        <pt x="319" y="663" on="1"/>
        <pt x="319" y="493" on="0"/>
        <pt x="409" y="261" on="0"/>
        <pt x="574" y="142" on="0"/>
        <pt x="686" y="142" on="1"/>
        <pt x="839" y="142" on="0"/>
        <pt x="996" y="298" on="0"/>
        <pt x="996" y="450" on="1"/>
        <pt x="996" y="552" on="0"/>
        <pt x="913" y="694" on="0"/>
        <pt x="766" y="765" on="0"/>
        <pt x="668" y="765" on="1"/>
        <pt x="594" y="765" on="0"/>
        <pt x="534" y="739" on="1"/>
      </contour>
    </TTGlyph>
    <TTGlyph name="glyph00046" xMin="80" yMin="0" xMax="1425" yMax="1482">
      <contour>
        <pt x="1365" y="1482" on="1"/>
        <pt x="1425" y="1303" on="0"/>
        <pt x="1425" y="1125" on="1"/>
        <pt x="1425" y="822" on="0"/>
        <pt x="1083" y="293" on="0"/>
        <pt x="490" y="0" on="0"/>
        <pt x="124" y="0" on="1"/>
        <pt x="80" y="0" on="1"/>
        <pt x="80" y="158" on="1"/>
        <pt x="210" y="158" on="0"/>
        <pt x="428" y="322" on="0"/>
        <pt x="550" y="606" on="0"/>
        <pt x="550" y="778" on="1"/>
        <pt x="550" y="964" on="0"/>
        <pt x="429" y="1247" on="0"/>
        <pt x="315" y="1338" on="1"/>
        <pt x="417" y="1482" on="1"/>
        <pt x="744" y="1252" on="0"/>
        <pt x="744" y="788" on="1"/>
        <pt x="744" y="621" on="0"/>
        <pt x="639" y="325" on="0"/>
        <pt x="554" y="233" on="1"/>
        <pt x="1232" y="537" on="0"/>
        <pt x="1232" y="1119" on="1"/>
        <pt x="1232" y="1272" on="0"/>
        <pt x="1178" y="1452" on="1"/>
      </contour>
    </TTGlyph>
    <TTGlyph name="glyph00047" xMin="80" yMin="-20" xMax="1425" yMax="1462">
      <contour>
        <pt x="1178" y="10" on="1"/>
        <pt x="1232" y="190" on="0"/>
        <pt x="1232" y="343" on="1"/>
        <pt x="1232" y="925" on="0"/>
        <pt x="554" y="1229" on="1"/>
        <pt x="638" y="1139" on="0"/>
        <pt x="744" y="843" on="0"/>
        <pt x="744" y="674" on="1"/>
        <pt x="744" y="208" on="0"/>
        <pt x="417" y="-20" on="1"/>
        <pt x="315" y="124" on="1"/>
        <pt x="429" y="215" on="0"/>
        <pt x="550" y="498" on="0"/>
        <pt x="550" y="684" on="1"/>
        <pt x="550" y="854" on="0"/>
        <pt x="428" y="1140" on="0"/>
        <pt x="210" y="1304" on="0"/>
        <pt x="80" y="1304" on="1"/>
        <pt x="80" y="1462" on="1"/>
        <pt x="124" y="1462" on="1"/>
        <pt x="489" y="1462" on="0"/>
        <pt x="1082" y="1169" on="0"/>
        <pt x="1425" y="641" on="0"/>
        <pt x="1425" y="337" on="1"/>
        <pt x="1425" y="158" on="0"/>
        <pt x="1365" y="-20" on="1"/>
      </contour>
    </TTGlyph>
    <TTGlyph name="glyph00048" xMin="160" yMin="0" xMax="1123" yMax="1462">
      <contour>
        <pt x="1057" y="1462" on="1"/>
        <pt x="979" y="1128" on="0"/>
        <pt x="979" y="751" on="1"/>
        <pt x="979" y="713" on="1"/>
        <pt x="1045" y="727" on="0"/>
        <pt x="1123" y="754" on="1"/>
        <pt x="1123" y="595" on="1"/>
        <pt x="1068" y="575" on="0"/>
        <pt x="984" y="554" on="1"/>
        <pt x="1000" y="270" on="0"/>
        <pt x="1057" y="0" on="1"/>
        <pt x="862" y="0" on="1"/>
        <pt x="808" y="263" on="0"/>
        <pt x="792" y="520" on="1"/>
        <pt x="694" y="508" on="0"/>
        <pt x="603" y="508" on="1"/>
        <pt x="392" y="508" on="0"/>
        <pt x="160" y="703" on="0"/>
        <pt x="160" y="879" on="1"/>
        <pt x="160" y="1462" on="1"/>
        <pt x="344" y="1462" on="1"/>
        <pt x="344" y="905" on="1"/>
        <pt x="344" y="670" on="0"/>
        <pt x="621" y="670" on="1"/>
        <pt x="701" y="670" on="0"/>
        <pt x="785" y="680" on="1"/>
        <pt x="785" y="751" on="1"/>
        <pt x="785" y="1130" on="0"/>
        <pt x="862" y="1462" on="1"/>
      </contour>
    </TTGlyph>
    <TTGlyph name="glyph00049" xMin="200" yMin="0" xMax="1267" yMax="1462">
      <contour>
        <pt x="200" y="1462" on="1"/>
        <pt x="384" y="1462" on="1"/>
        <pt x="384" y="754" on="1"/>
        <pt x="550" y="700" on="0"/>
        <pt x="725" y="670" on="0"/>
        <pt x="819" y="670" on="1"/>
        <pt x="959" y="670" on="0"/>
        <pt x="1083" y="787" on="0"/>
        <pt x="1083" y="905" on="1"/>
        <pt x="1083" y="1462" on="1"/>
        <pt x="1267" y="1462" on="1"/>
        <pt x="1267" y="879" on="1"/>
        <pt x="1267" y="701" on="0"/>
        <pt x="1046" y="508" on="0"/>
        <pt x="837" y="508" on="1"/>
        <pt x="734" y="508" on="0"/>
        <pt x="533" y="547" on="0"/>
        <pt x="384" y="600" on="1"/>
        <pt x="384" y="0" on="1"/>
        <pt x="200" y="0" on="1"/>
      </contour>
    </TTGlyph>
    <TTGlyph name="glyph00050" xMin="20" yMin="0" xMax="1327" yMax="1468">
      <contour>
        <pt x="956" y="184" on="1"/>
        <pt x="386" y="184" on="1"/>
        <pt x="386" y="340" on="1"/>
        <pt x="956" y="340" on="1"/>
      </contour>
      <contour>
        <pt x="671" y="1278" on="1"/>
        <pt x="629" y="1110" on="0"/>
        <pt x="608" y="1059" on="1"/>
        <pt x="206" y="0" on="1"/>
        <pt x="20" y="0" on="1"/>
        <pt x="591" y="1468" on="1"/>
        <pt x="757" y="1468" on="1"/>
        <pt x="1327" y="0" on="1"/>
        <pt x="1136" y="0" on="1"/>
        <pt x="741" y="1059" on="1"/>
      </contour>
    </TTGlyph>
    <TTGlyph name="glyph00051" xMin="200" yMin="0" xMax="1318" yMax="1462">
      <contour>
        <pt x="1318" y="0" on="1"/>
        <pt x="1134" y="0" on="1"/>
        <pt x="1134" y="685" on="1"/>
        <pt x="384" y="685" on="1"/>
        <pt x="384" y="0" on="1"/>
        <pt x="200" y="0" on="1"/>
        <pt x="200" y="1462" on="1"/>
        <pt x="384" y="1462" on="1"/>
        <pt x="384" y="841" on="1"/>
        <pt x="1134" y="841" on="1"/>
        <pt x="1134" y="1462" on="1"/>
        <pt x="1318" y="1462" on="1"/>
      </contour>
    </TTGlyph>
    <TTGlyph name="glyph00052" xMin="200" yMin="0" xMax="1322" yMax="1462">
      <contour>
        <pt x="855" y="840" on="1"/>
        <pt x="1138" y="840" on="1"/>
        <pt x="1138" y="1462" on="1"/>
        <pt x="1322" y="1462" on="1"/>
        <pt x="1322" y="682" on="1"/>
        <pt x="855" y="682" on="1"/>
        <pt x="855" y="0" on="1"/>
        <pt x="671" y="0" on="1"/>
        <pt x="671" y="682" on="1"/>
        <pt x="200" y="682" on="1"/>
        <pt x="200" y="1462" on="1"/>
        <pt x="384" y="1462" on="1"/>
        <pt x="384" y="840" on="1"/>
        <pt x="671" y="840" on="1"/>
        <pt x="671" y="1462" on="1"/>
        <pt x="855" y="1462" on="1"/>
      </contour>
    </TTGlyph>
</ttFont>
